<?xml version="1.0" encoding="UTF-8" standalone="no"?>
<!-- Svg Vector Icons : http://www.onlinewebfonts.com/icon -->

<svg
   version="1.1"
   x="0px"
   y="0px"
   viewBox="0 0 1000 1000"
   enable-background="new 0 0 1000 1000"
   xml:space="preserve"
   id="svg10"
   sodipodi:docname="salamander.svg"
   inkscape:version="1.2.1 (9c6d41e410, 2022-07-14, custom)"
   xmlns:inkscape="http://www.inkscape.org/namespaces/inkscape"
   xmlns:sodipodi="http://sodipodi.sourceforge.net/DTD/sodipodi-0.dtd"
   xmlns="http://www.w3.org/2000/svg"
   xmlns:svg="http://www.w3.org/2000/svg"><defs
   id="defs14" /><sodipodi:namedview
   id="namedview12"
   pagecolor="#ffffff"
   bordercolor="#666666"
   borderopacity="1.0"
   inkscape:showpageshadow="2"
   inkscape:pageopacity="0.0"
   inkscape:pagecheckerboard="0"
   inkscape:deskcolor="#d1d1d1"
   showgrid="false"
   inkscape:zoom="0.47230624"
   inkscape:cx="-183.14389"
   inkscape:cy="585.42525"
   inkscape:window-width="1920"
   inkscape:window-height="1048"
   inkscape:window-x="0"
   inkscape:window-y="32"
   inkscape:window-maximized="1"
   inkscape:current-layer="g6" />
<metadata
   id="metadata2"> Svg Vector Icons : http://www.onlinewebfonts.com/icon </metadata>
<g
   id="g8"><g
     transform="translate(0.000000,511.000000) scale(0.100000,-0.100000)"
     id="g6"
     style="fill:#aa0000"><path
       d="M 1647.6,4401.8 C 723.9,4341.5 101.38774,3789.1196 100,3546.5 c -1.525611,-172.9086 112.26478,-341.2793 229.4,-452.8 176.36051,-169.5018 799,-470.9 1545.6,-583.6 485,-72.5 1036.4,-249.5 1624.1,-521.2 l 179.1,-82.5 -116.7,-118.7 -116.7,-118.7 -116.8,10 c -136.8,14.1 -346.1,-20.1 -472.9,-74.5 -108.7,-46.3 -259.677,-169.0859 -281.2345,-255.7924 -71.3339,-285.8945 11.6744,-244.3799 260.5503,-151.946 111.5208,52.2085 457.9701,81.6841 473.4842,33.4384 0,-8.1 -44.3,-56.3 -100.6,-110.7 -130.8,-124.8 -178.1714,-206.03654 -230.4714,-373.03654 -38.1208,-126.75349 17.8381,-170.52686 56.8506,-247.95781 39.8016,-80.11898 192.9059,-66.16468 325.1967,96.26828 C 3402.386,648.91674 3394.6,688.8 3503.2,803.6 l 90.6,92.6 74.5,-30.2 c 40.2,-18.1 140.9,-32.2 223.4,-36.2 148.9,-4 148.9,-4 199.2,-78.5 44.3,-66.4 12.5738,-132.98119 6.8119,-194.47404 -10.6764,-79.57386 -21.6234,-116.32472 -6.5773,-172.4775 61.5622,-229.75343 228.0984,-194.01328 354.6773,-75.0225 C 4569.6883,433.20234 4604.1,688.9 4493.4,920.4 c -52.3,110.7 -54.3,126.8 -28.2,155 96.6,94.6 171.1,342.1 171.1,559.5 0,205.3 -27.5089,244.2362 -53.2682,380.735 -36.8944,138.9042 -76.5515,259.8442 -52.1465,350.9248 20.5603,72.0014 75.4084,61.5679 141.1272,-4.1509 171.0872,-165.4911 313.4607,-397.8055 306.3875,-767.8089 20.0602,-152.5869 -64.573,-242.0327 66.4,-319.9 430.7,-249.5 970,-511.2 1436.9,-692.3 358.2,-142.9 368.3,-142.9 416.6,-60.4 122.7,207.3 297.8,313.9 547.4,332.1 309.9,24.1 619.5493,-127.44939 795.9189,-276.3157 72.6145,-60.98057 120.0843,-133.28913 97.2303,-176.88222 -40.997,-63.22643 -212.2837,54.94479 -366.9303,96.38222 C 7794.2781,535.03749 7479.2593,516.00095 7349,451.6 7212.2,385.2 7081.4,242.3 7047.1,127.6 7014.9,12.6 6996.8,-5.5 6908.2,-5.5 c -128.8,0 -591.7,183.1 -1042.5,414.6 -169,86.5 -203.3,96.6 -352.2,104.6 -205.3,10.1 -338.1,-36.2 -489,-167 C 4857.5,199.8 4984.6885,7.0444738 4984.6885,7.0444738 5057.2123,-60.619616 5175.4,-106.1 5264,-27.6 5356.6,50.9 5406.9,75 5489.4,75 c 80.5,0 173.1,-30.2 173.1,-56.3 0,-10.1 -42.3,-24.2 -94.6,-32.2 -356.2452,-45.779883 -518.2656,-333.73921 -543.0309,-403.97766 -45.7348,-128.83825 -74.2267,-347.41512 168.7309,-332.62234 66.2279,4.77701 100.6,14.1 157,62.4 38.2,34.2 70.4,76.5 70.4,92.6 0,16.1 30.2,60.4 68.4,98.6 64.4,64.4 76.5,68.4 211.3,68.4 78.5,0 142.9,-2 142.9,-6 0,-4 -44.3,-52.3 -98.6,-108.7 -223.4,-231.4 -122.3074,-438.16268 -80.8383,-525.3488 C 5683.0987,-1112.0975 5845.6,-1233.1 5877.8,-1221 c 80.5,28.2 146.9,136.8 146.9,239.5 0,72.4 10.1,96.6 66.4,144.9 36.2,32.2 94.6,70.4 130.8,84.5 58.4,24.2 76.5,20.1 229.4,-44.3 416.6,-175.1 648,-219.4 1213.5,-229.4 l 422.6,-6 58.4,-100.6 c 150.9,-265.6 219.3,-652.1 167,-949.9 -98.6,-565.5 -513.2,-905.6 -1143.1,-935.8 -358.2,-18.1 -691.4103,21.1364 -1006.3,215.3 -404.0493,245.4523 -889.7281,562.3316 -1003.3434,675.9469 -111.3418,111.3418 -475.6362,626.3938 -623.2849,599.3053 -163.5827,-35.4904 -28.6509,-632.797 29.1173,-838.5522 86.8567,-273.6712 329.611,-652.1 514.811,-873.4 342.1,-406.5 869.4,-720.5 1459,-869.4 897.6,-225.4 1934,26.2 2515.6,609.8 406.5,410.5 668.1,947.9 797,1642.2 64.4,338.1 62.4,1120.9 0,1503.3 -90.6,551.4 -243.5,1044.5 -468.9,1513.4 -732.4,1521.4 -1638,2322.3 -3235.9,2857.7 -328,110.7 -640,191.2 -947.9,241.5 -525.2,86.5 -817.1,104.6 -2002.4,122.8 -631.9,10.1 -1183.3,22.1 -1227.6,26.2 -44.2,5.9 -189.1,1.9 -322,-6.2 z m 245.6,-603.7 c 155,-70.4 253.6,-289.8 207.3,-462.9 -44.3,-163 -181.1,-267.7 -354.2,-267.7 -251.6,0 -430.7,231.4 -368.3,479 56.3,227.4 305.9,348.2 515.2,251.6 z"
       id="path4"
       style="fill:#aa0000"
       sodipodi:nodetypes="cccccccccccccccccccccccccccscccccccccccccscccccssccccsssscccscccccccccccccccccccccccccscc" /><g
       style="fill:currentColor"
       id="g14"
       transform="matrix(221.64218,0,0,-221.64218,417.54734,161.78361)"><path
         d="m 8,16 c 3.314,0 6,-2 6,-5.5 0,-1.5 -0.5,-4 -2.5,-6 0.25,1.5 -1.25,2 -1.25,2 C 11,4 9,0.5 6,0 6.357,2 6.5,4 4,6 2.75,7 2,8.729 2,10.5 2,14 4.686,16 8,16 Z M 8,15 C 6.343,15 5,14 5,12.25 5,11.5 5.25,10.25 6.25,9.25 6.125,10 7,10.5 7,10.5 6.625,9.25 7.5,7.25 9,7 c -0.179,1 -0.25,2 1,3 0.625,0.5 1,1.364 1,2.25 C 11,14 9.657,15 8,15 Z"
         id="path2"
         style="fill:#aa0000" /></g></g></g>
</svg>
